<svg width="48" height="48" viewBox="0 0 48 48" fill="none" xmlns="http://www.w3.org/2000/svg">
<path d="M45.5493 12.7525C45.0308 10.8246 43.5108 9.30496 41.5832 8.78586C38.0619 7.82236 23.976 7.82236 23.976 7.82236C23.976 7.82236 9.89072 7.82236 6.36932 8.74933C4.47885 9.26788 2.92181 10.8249 2.40326 12.7525C1.47656 16.2736 1.47656 23.5759 1.47656 23.5759C1.47656 23.5759 1.47656 30.9151 2.40326 34.3994C2.92236 36.3269 4.44177 37.8466 6.3696 38.3657C9.92779 39.3295 23.9766 39.3295 23.9766 39.3295C23.9766 39.3295 38.0619 39.3295 41.5832 38.4025C43.5111 37.8837 45.0308 36.364 45.5499 34.4365C46.4763 30.9151 46.4763 23.613 46.4763 23.613C46.4763 23.613 46.5134 16.2736 45.5493 12.7525ZM19.4914 30.3221V16.8298L31.2045 23.5759L19.4914 30.3221Z" fill="#4D7C0F"/>
</svg>
