<svg width="48" height="48" viewBox="0 0 48 48" fill="none" xmlns="http://www.w3.org/2000/svg">
<path d="M45.03 12.0366C42.2906 12.0366 39.7631 11.1291 37.7334 9.59812C35.4056 7.84312 33.7331 5.26875 33.1425 2.30156C32.9962 1.56844 32.9175 0.811873 32.91 0.0365601H25.0847V21.4191L25.0753 33.1312C25.0753 36.2625 23.0362 38.9175 20.2097 39.8512C19.3894 40.1222 18.5034 40.2506 17.5809 40.2C16.4034 40.1353 15.3 39.78 14.3409 39.2062C12.3 37.9856 10.9162 35.7712 10.8787 33.2381C10.8197 29.2791 14.0203 26.0512 17.9765 26.0512C18.7575 26.0512 19.5075 26.1787 20.2097 26.4103V20.5659V18.465C19.469 18.3553 18.7153 18.2981 17.9531 18.2981C13.6228 18.2981 9.5728 20.0981 6.6778 23.3409C4.48967 25.7916 3.17717 28.9181 2.97467 32.1966C2.70936 36.5034 4.2853 40.5975 7.34155 43.6181C7.79061 44.0616 8.26217 44.4731 8.7553 44.8528C11.3756 46.8694 14.579 47.9625 17.9531 47.9625C18.7153 47.9625 19.469 47.9062 20.2097 47.7966C23.3615 47.3297 26.2697 45.8869 28.5647 43.6181C31.3847 40.8309 32.9428 37.1306 32.9597 33.1922L32.9194 15.7022C34.2647 16.74 35.7356 17.5987 37.3144 18.2653C39.7697 19.3012 42.3731 19.8262 45.0525 19.8253V14.1431V12.0347C45.0544 12.0366 45.0319 12.0366 45.03 12.0366Z" fill="#4D7C0F"/>
</svg>
