<svg width="104" height="104" viewBox="0 0 104 104" fill="none" xmlns="http://www.w3.org/2000/svg">
<path d="M32.1098 42.0032L41.8753 32.2377L71.746 62.1085L61.9806 71.8739L32.1098 42.0032Z" fill="#4D7C0F"/>
<path d="M24.7 1.95L1.95 24.7C-0.65 27.3 -0.65 31.6875 1.95 34.2875C4.55 36.8875 8.9375 36.8875 11.5375 34.2875L34.2875 11.5375C36.8875 8.9375 36.8875 4.55 34.2875 1.95C32.825 0.65 31.2 0 29.4125 0C27.625 0 26 0.65 24.7 1.95Z" fill="#4D7C0F"/>
<path d="M47.9375 5.19995C46.15 5.19995 44.525 5.84995 43.225 7.14995L7.31249 43.0625C4.71249 45.6625 4.71249 50.05 7.31249 52.65C9.91249 55.25 14.3 55.25 16.9 52.65L52.8125 16.7375C55.4125 14.1375 55.4125 9.74995 52.8125 7.14995C51.35 6.01245 49.5625 5.19995 47.9375 5.19995Z" fill="#4D7C0F"/>
<path d="M79.3 102.05L102.05 79.2999C104.65 76.6999 104.65 72.3125 102.05 69.7125C99.45 67.1125 95.0625 67.1125 92.4625 69.7125L69.7125 92.4624C67.1125 95.0624 67.1125 99.4499 69.7125 102.05C71.0125 103.35 72.8 104 74.425 104C76.375 104 78 103.35 79.3 102.05Z" fill="#4D7C0F"/>
<path d="M56.0625 98.7999C57.85 98.7999 59.475 98.1499 60.775 96.8499L96.6875 60.9374C99.2875 58.3374 99.2875 53.9499 96.6875 51.3499C94.0875 48.7499 89.7 48.7499 87.1 51.3499L51.35 87.2624C48.75 89.8624 48.75 94.2499 51.35 96.8499C52.65 97.9874 54.4375 98.7999 56.0625 98.7999Z" fill="#4D7C0F"/>
</svg>
