<svg width="104" height="104" viewBox="0 0 104 104" fill="none" xmlns="http://www.w3.org/2000/svg">
<g clip-path="url(#clip0_20_38)">
<path d="M15.4353 87.3095C13.7536 87.3095 12.3888 85.9447 12.3888 84.2632C12.3888 82.5817 13.7536 81.2169 15.4353 81.2169H42.9284C42.7375 79.1658 42.7131 77.1248 42.8472 75.1244H15.4353C13.7536 75.1244 12.3888 73.7596 12.3888 72.0781C12.3888 70.3967 13.7536 69.0319 15.4353 69.0319H43.7854C46.6349 57.4625 55.4535 48.5646 67.2248 49.3836V15.2147C67.2248 13.5333 65.86 12.1685 64.1784 12.1685H59.1011V17.2456C59.1011 22.2841 55.0006 26.3844 49.9616 26.3844H17.4663C12.4274 26.3844 8.32691 22.2841 8.32691 17.2456V12.1685H3.04647C1.3648 12.1685 0 13.5333 0 15.2147V94.4172C0 96.0987 1.3648 97.4635 3.04647 97.4635H48.2822C46.3812 94.4192 44.9209 90.9791 43.9827 87.3093H15.4353V87.3095ZM15.4353 32.4769H39.8068C41.4885 32.4769 42.8533 33.8417 42.8533 35.5232C42.8533 37.2046 41.4885 38.5694 39.8068 38.5694H15.4353C13.7536 38.5694 12.3888 37.2046 12.3888 35.5232C12.3888 33.8417 13.7538 32.4769 15.4353 32.4769ZM15.4353 44.662H51.9927C53.6744 44.662 55.0392 46.0267 55.0392 47.7082C55.0392 49.3897 53.6744 50.7545 51.9927 50.7545H15.4353C13.7536 50.7545 12.3888 49.3897 12.3888 47.7082C12.3888 46.0267 13.7538 44.662 15.4353 44.662ZM15.4353 56.847H39.8068C41.4885 56.847 42.8533 58.2118 42.8533 59.8933C42.8533 61.5747 41.4885 62.9395 39.8068 62.9395H15.4353C13.7536 62.9395 12.3888 61.5747 12.3888 59.8933C12.3888 58.2116 13.7538 56.847 15.4353 56.847Z" fill="#4D7C0F"/>
<path d="M17.4663 20.2919H49.9618C51.6443 20.2919 53.0083 18.9281 53.0083 17.2456V9.12242C53.0083 7.44014 51.6443 6.07616 49.9618 6.07616H42.3313C39.4605 -2.02 27.9711 -2.03077 25.0967 6.07616H17.4663C15.7838 6.07616 14.4198 7.43994 14.4198 9.12242V17.2458C14.4198 18.9281 15.7838 20.2919 17.4663 20.2919Z" fill="#4D7C0F"/>
<path d="M79.1513 57.6717C79.4085 54.3322 80.4085 50.9956 82.1726 47.5852C82.9457 46.0908 82.3607 44.2527 80.8663 43.4798C79.3721 42.7069 77.534 43.2917 76.7607 44.7859C74.6169 48.9305 73.3868 53.1262 73.0756 57.3248C59.8536 50.224 46.5355 63.6408 49.1843 82.2673C51.5637 98.9996 65.4211 108.67 76.4203 101.689C87.6054 108.788 101.313 98.7438 103.656 82.2673C106.391 63.0377 92.3136 49.9168 79.1513 57.6717ZM73.2595 80.4441C73.5516 82.101 72.4453 83.6809 70.7882 83.973C69.1314 84.2651 67.5513 83.1589 67.2592 81.502L66.7302 78.502C66.4381 76.8451 67.5445 75.2652 69.2014 74.9731C70.8583 74.681 72.4384 75.7872 72.7305 77.4441L73.2595 80.4441ZM85.4496 81.5668C85.1575 83.2236 83.5774 84.3299 81.9205 84.0378C80.2636 83.7457 79.1572 82.1656 79.4493 80.5089L79.9782 77.5089C80.2703 75.852 81.8504 74.7458 83.5073 75.0379C85.1642 75.33 86.2706 76.9101 85.9785 78.5668L85.4496 81.5668Z" fill="#4D7C0F"/>
</g>
<defs>
<clipPath id="clip0_20_38">
<rect width="104" height="104" fill="white"/>
</clipPath>
</defs>
</svg>
