<svg width="104" height="104" viewBox="0 0 104 104" fill="none" xmlns="http://www.w3.org/2000/svg">
<g clip-path="url(#clip0_20_20)">
<path d="M73.1995 88.2774C72.2612 88.1321 71.5529 88.0314 70.9764 87.9502C69.2053 87.6987 68.7298 87.6312 66.6593 86.9867C65.8433 86.7326 62.6514 83.5131 62.6514 77.2121C62.6514 69.0948 64.5788 61.9264 65.4068 59.2216C65.4287 59.151 65.4827 58.9467 65.5575 58.6701C65.6944 58.1622 66.6992 55.095 66.6992 55.095C67.244 53.5347 67.8078 51.9208 68.1741 50.263L68.1937 50.1781C68.7466 47.7777 70.5616 39.0035 70.6903 26.8667C70.6903 25.642 69.6722 24.5765 69.0642 23.9401C68.9529 23.8232 68.8543 23.7208 68.7806 23.6348C68.1951 22.9541 67.4244 22.1136 66.5317 21.1411C65.9437 20.4997 65.2961 19.793 64.5981 19.0201C63.4817 17.7853 62.2368 16.6556 61.0324 15.5636C59.5513 14.2215 58.0209 12.8335 56.763 11.2687C54.8832 8.93096 53.1453 4.83927 53.4598 1.54164C53.5076 1.04413 53.3915 0.614356 53.1332 0.330465C52.8465 0.0148114 52.3967 -0.0835667 52.0007 0.072995C51.6041 -0.0835667 51.1541 0.0148114 50.8679 0.330465C50.6099 0.614356 50.4933 1.04413 50.5416 1.54164C50.8556 4.83927 49.1177 8.93096 47.2383 11.2687C45.98 12.8335 44.4495 14.2215 42.9685 15.5636C41.7646 16.6556 40.5188 17.7853 39.403 19.0201C38.7053 19.793 38.0569 20.4997 37.4691 21.1411C36.5761 22.1136 35.806 22.9541 35.2199 23.6348C35.1463 23.7208 35.0485 23.8232 34.9369 23.9401C34.3289 24.5765 33.3105 25.642 33.3105 26.8729C33.4396 39.0035 35.2545 47.7777 35.8074 50.1781L35.8268 50.263C36.193 51.9208 36.7571 53.535 37.3013 55.095C37.3013 55.095 38.3059 58.1622 38.4428 58.6701C38.5178 58.9467 38.5721 59.151 38.594 59.2216C39.4218 61.9264 41.3489 69.0948 41.3489 77.2121C41.3489 83.5134 38.1572 86.7326 37.3415 86.9867C35.2711 87.6312 34.7952 87.6987 33.0238 87.9502C32.4473 88.0314 31.7396 88.1321 30.8013 88.2774C20.6327 89.3596 19.5348 94.4075 19.5348 96.5279C19.5348 97.0963 19.8291 98.943 21.1712 100.645C22.3774 102.175 24.7795 104 29.3774 104C30.0672 104 30.7968 103.959 31.5468 103.878C34.6069 103.549 37.6909 103.055 40.6729 102.577C41.7562 102.404 42.8375 102.23 43.9208 102.064C45.3638 101.843 47.9647 101.696 51.6499 101.629C51.8225 101.626 51.9425 101.623 52.0007 101.621C52.0589 101.623 52.1789 101.626 52.3509 101.629C56.0367 101.696 58.6373 101.843 60.0806 102.064C61.1633 102.23 62.2449 102.404 63.328 102.577C66.3102 103.055 69.3945 103.549 72.4541 103.878C73.204 103.958 73.9337 104 74.6234 104C79.2222 104 81.6249 102.176 82.8301 100.645C84.1723 98.9433 84.466 97.096 84.466 96.5279C84.4655 94.4075 83.3681 89.3596 73.1995 88.2774ZM57.3775 46.9504C57.226 46.9504 57.0823 46.9176 56.937 46.8487C56.464 46.6601 55.8574 45.7564 55.8009 45.4056C58.1569 43.7664 59.7487 40.6526 59.7487 37.0786C59.7487 31.8008 59.1916 27.5219 52.0001 27.5219C44.8087 27.5219 44.2516 31.8008 44.2516 37.0786C44.2516 40.6526 45.8433 43.7664 48.1991 45.4056C48.1437 45.7556 47.5234 46.6162 47.0632 46.8487C46.9182 46.9176 46.7748 46.9504 46.6228 46.9504C45.1086 46.951 43.2107 43.6345 42.7124 42.3149C41.8632 40.0727 40.8033 36.2188 40.5759 30.5947L40.5666 30.3782C40.5084 29.1935 42.293 26.1637 42.5294 25.6454C42.8543 24.9317 47.07 18.506 48.3219 16.9836C48.7652 16.4454 51.0107 13.4637 52.0004 12.1476C52.9898 13.4637 55.2351 16.4454 55.6781 16.9836C56.9308 18.506 61.1454 24.9317 61.4709 25.6454C61.7075 26.1637 63.4921 29.1935 63.4342 30.3782L63.4249 30.5947C63.1973 36.2191 62.1379 40.073 61.2879 42.3149C60.7895 43.6343 58.8922 46.9504 57.3775 46.9504Z" fill="#4D7C0F"/>
</g>
<defs>
<clipPath id="clip0_20_20">
<rect width="104" height="104" fill="white"/>
</clipPath>
</defs>
</svg>
