<svg width="40" height="34" viewBox="0 0 40 34" fill="none" xmlns="http://www.w3.org/2000/svg">
<path d="M8.34606 33.3842C5.90331 33.3842 3.90161 32.536 2.34097 30.8397C0.780322 29.1433 0 26.7006 0 23.5114C0 18.4902 1.18745 13.8422 3.56234 9.56743C6.00509 5.22476 8.68533 2.03562 11.6031 0L16.7939 3.35878C12.9941 7.49788 10.8227 12.3155 10.2799 17.8117C12.112 18.2188 13.5708 19.067 14.6565 20.3562C15.7422 21.6455 16.285 23.274 16.285 25.2417C16.285 27.6845 15.5047 29.6522 13.944 31.145C12.3834 32.6378 10.5174 33.3842 8.34606 33.3842ZM31.5522 33.3842C29.1094 33.3842 27.1077 32.536 25.5471 30.8397C23.9864 29.1433 23.2061 26.7006 23.2061 23.5114C23.2061 18.4902 24.3936 13.8422 26.7684 9.56743C29.2112 5.22476 31.8914 2.03562 34.8092 0L40 3.35878C36.2002 7.49788 34.0288 12.3155 33.486 17.8117C35.3181 18.2188 36.7769 19.067 37.8626 20.3562C38.9483 21.6455 39.4911 23.274 39.4911 25.2417C39.4911 27.6845 38.7108 29.6522 37.1501 31.145C35.5895 32.6378 33.7235 33.3842 31.5522 33.3842Z" fill="#4D7C0F"/>
</svg>
